<svg width="512" height="512" viewBox="0 0 512 512" fill="none" xmlns="http://www.w3.org/2000/svg">
<path d="M112 464C112 472.487 115.371 480.626 121.373 486.627C127.374 492.629 135.513 496 144 496H368C376.487 496 384.626 492.629 390.627 486.627C396.629 480.626 400 472.487 400 464V48C400 39.5131 396.629 31.3737 390.627 25.3726C384.626 19.3714 376.487 16 368 16H144C135.513 16 127.374 19.3714 121.373 25.3726C115.371 31.3737 112 39.5131 112 48V464Z" fill="#313133"/>
<path d="M368 16H144C139.471 16.0114 134.997 16.9935 130.88 18.88C128.993 22.9973 128.011 27.4711 128 32V448C128 456.487 131.371 464.626 137.373 470.627C143.374 476.629 151.513 480 160 480H384C388.529 479.989 393.003 479.007 397.12 477.12C399.007 473.003 399.989 468.529 400 464V48C400 39.5131 396.629 31.3737 390.627 25.3726C384.626 19.3714 376.487 16 368 16Z" fill="#4F4F4F"/>
<path d="M144 48H368V464H144V48Z" fill="#9EBED3"/>
<path d="M160 400.688C160 413.236 164.985 425.27 173.857 434.143C182.73 443.015 194.764 448 207.312 448H368V48H160V400.688Z" fill="#B3D8F1"/>
<path d="M207.992 16L216 56L295.992 55.992L304 16" fill="#4F4F4F"/>
<path d="M248 272H56C49.6348 272 43.5303 274.529 39.0294 279.029C34.5286 283.53 32 289.635 32 296V376C32 382.365 34.5286 388.47 39.0294 392.971C43.5303 397.471 49.6348 400 56 400H176L240 432L224 400H248C254.365 400 260.47 397.471 264.971 392.971C269.471 388.47 272 382.365 272 376V296C272 289.635 269.471 283.53 264.971 279.029C260.47 274.529 254.365 272 248 272Z" fill="#336EA3"/>
<path d="M248 272H56C53.2684 272.026 50.5619 272.524 48 273.472V343.416C48 354.18 52.2758 364.502 59.8868 372.113C67.4978 379.724 77.8205 384 88.584 384H270.528C271.476 381.438 271.974 378.732 272 376V296C272 289.635 269.471 283.53 264.971 279.029C260.47 274.529 254.365 272 248 272Z" fill="#407DBC"/>
<path d="M88 336C96.8366 336 104 328.837 104 320C104 311.163 96.8366 304 88 304C79.1634 304 72 311.163 72 320C72 328.837 79.1634 336 88 336Z" fill="#ECBC50"/>
<path d="M64 368H112V360C112 353.635 109.471 347.53 104.971 343.029C100.47 338.529 94.3652 336 88 336C81.6348 336 75.5303 338.529 71.0294 343.029C66.5286 347.53 64 353.635 64 360V368Z" fill="#ECBC50"/>
<path d="M136 312H216V328H136V312ZM136 344H248V360H136V344Z" fill="white"/>
<path d="M264 88H456C462.365 88 468.47 90.5286 472.971 95.0294C477.471 99.5303 480 105.635 480 112V192C480 198.365 477.471 204.47 472.971 208.971C468.47 213.471 462.365 216 456 216H336L272 248L288 216H264C257.635 216 251.53 213.471 247.029 208.971C242.529 204.47 240 198.365 240 192V112C240 105.635 242.529 99.5303 247.029 95.0294C251.53 90.5286 257.635 88 264 88Z" fill="#336EA3"/>
<path d="M456 88H264C261.268 88.0259 258.562 88.5239 256 89.472V159.416C256 170.18 260.276 180.502 267.887 188.113C275.498 195.724 285.82 200 296.584 200H478.528C479.476 197.438 479.974 194.732 480 192V112C480 105.635 477.471 99.5303 472.971 95.0294C468.47 90.5286 462.365 88 456 88Z" fill="#407DBC"/>
<path d="M424 152C432.837 152 440 144.837 440 136C440 127.163 432.837 120 424 120C415.163 120 408 127.163 408 136C408 144.837 415.163 152 424 152Z" fill="#B3D8F1"/>
<path d="M448 184H400V176C400 169.635 402.529 163.53 407.029 159.029C411.53 154.529 417.635 152 424 152C430.365 152 436.47 154.529 440.971 159.029C445.471 163.53 448 169.635 448 176V184Z" fill="#B3D8F1"/>
<path d="M296 128H376V144H296V128ZM264 160H376V176H264V160Z" fill="white"/>
</svg>
