<svg width="512" height="512" viewBox="0 0 512 512" fill="none" xmlns="http://www.w3.org/2000/svg">
<path d="M346.712 156C350.65 153.385 355.273 151.993 360 152H448C452.762 152 457.423 153.382 461.416 155.978C465.409 158.573 468.563 162.272 470.496 166.624L491.44 213.736C494.445 220.493 495.998 227.805 496 235.2C495.999 238.374 495.712 241.541 495.144 244.664L482.864 312.232C482.061 316.652 479.734 320.65 476.287 323.531C472.84 326.412 468.492 327.994 464 328H304L346.712 156Z" fill="#9EBED3"/>
<path d="M470.496 166.624C468.563 162.271 465.409 158.573 461.416 155.978C457.423 153.382 452.762 152 448 152H364.096L352.896 223.92C351.204 234.81 351.89 245.938 354.906 256.538C357.923 267.138 363.197 276.959 370.369 285.328C377.54 293.696 386.438 300.413 396.451 305.017C406.464 309.622 417.355 312.004 428.376 312H482.912L495.144 244.688C497.049 234.233 495.758 223.446 491.44 213.736L470.496 166.624Z" fill="#B3D8F1"/>
<path d="M470.496 166.624C468.563 162.272 465.409 158.573 461.416 155.978C457.423 153.382 452.762 152 448 152H360C355.273 151.993 350.65 153.385 346.712 156L339.76 184H478.224L470.496 166.624Z" fill="#336EA3"/>
<path d="M478.224 184L470.496 166.624C468.563 162.271 465.409 158.573 461.416 155.978C457.423 153.382 452.763 152 448 152H364.096L359.12 184H478.224Z" fill="#407DBC"/>
<path d="M408 264H491.632L495.144 244.688C497.049 234.233 495.758 223.446 491.44 213.736L478.224 184H416L408 264Z" fill="#D2EDFC"/>
<path d="M88 328C83.7565 328 79.6869 326.314 76.6863 323.314C73.6857 320.313 72 316.243 72 312L96 112H352L328 312C328 316.243 326.314 320.313 323.314 323.314C320.313 326.314 316.243 328 312 328H88Z" fill="#336EA3"/>
<path d="M117.432 112L111.424 168C109.479 186.154 111.375 204.514 116.99 221.886C122.605 239.259 131.813 255.256 144.015 268.837C156.217 282.418 171.14 293.28 187.815 300.717C204.49 308.153 222.542 311.997 240.8 312H328L352 112H117.432Z" fill="#407DBC"/>
<path d="M64 328H496V360H64V328Z" fill="#5C4436"/>
<path d="M96 344H496V328H80C80 332.243 81.6857 336.313 84.6863 339.314C87.6869 342.314 91.7565 344 96 344Z" fill="#926745"/>
<path d="M408 400C430.091 400 448 382.091 448 360C448 337.909 430.091 320 408 320C385.909 320 368 337.909 368 360C368 382.091 385.909 400 408 400Z" fill="#313133"/>
<path d="M408 320C399.363 320.025 390.97 322.867 384.096 328.096C378.278 335.765 375.434 345.281 376.089 354.885C376.745 364.489 380.857 373.53 387.663 380.337C394.47 387.143 403.511 391.255 413.115 391.91C422.719 392.566 432.235 389.722 439.904 383.904C444.394 377.984 447.139 370.927 447.829 363.529C448.519 356.131 447.125 348.687 443.806 342.04C440.488 335.392 435.376 329.805 429.048 325.91C422.721 322.016 415.43 319.968 408 320Z" fill="#4F4F4F"/>
<path d="M408 376C404.836 376 401.742 375.062 399.111 373.304C396.48 371.545 394.429 369.047 393.218 366.123C392.007 363.199 391.69 359.982 392.307 356.879C392.925 353.775 394.449 350.924 396.686 348.686C398.924 346.449 401.775 344.925 404.879 344.307C407.982 343.69 411.199 344.007 414.123 345.218C417.047 346.429 419.545 348.48 421.304 351.111C423.062 353.742 424 356.836 424 360C424 364.243 422.314 368.313 419.314 371.314C416.313 374.314 412.243 376 408 376Z" fill="#313133"/>
<path d="M8 264H104V280H8V264ZM56 232H151.992V248H56V232ZM56 176H152V192H56V176ZM24 176H40V192H24V176Z" fill="#B3D8F1"/>
<path d="M176 248L216 264L256 248V200L216 184L176 200V248Z" fill="#B48155"/>
<path d="M256 200L216 216L176 200L216 184L256 200Z" fill="#D09E71"/>
<path d="M216 264V216L256 200V248L216 264Z" fill="#926745"/>
<path d="M184 400C206.091 400 224 382.091 224 360C224 337.909 206.091 320 184 320C161.909 320 144 337.909 144 360C144 382.091 161.909 400 184 400Z" fill="#313133"/>
<path d="M184 320C175.363 320.025 166.97 322.867 160.096 328.096C154.278 335.765 151.434 345.281 152.089 354.885C152.745 364.489 156.857 373.53 163.663 380.337C170.47 387.143 179.511 391.255 189.115 391.91C198.719 392.566 208.235 389.722 215.904 383.904C220.394 377.984 223.139 370.927 223.829 363.529C224.519 356.131 223.125 348.687 219.806 342.04C216.488 335.392 211.376 329.805 205.048 325.91C198.721 322.016 191.43 319.968 184 320Z" fill="#4F4F4F"/>
<path d="M184 376C180.836 376 177.742 375.062 175.111 373.304C172.48 371.545 170.429 369.047 169.218 366.123C168.007 363.199 167.69 359.982 168.307 356.879C168.925 353.775 170.449 350.924 172.686 348.686C174.924 346.449 177.775 344.925 180.879 344.307C183.982 343.69 187.199 344.007 190.123 345.218C193.047 346.429 195.545 348.48 197.304 351.111C199.062 353.742 200 356.836 200 360C200 364.243 198.314 368.313 195.314 371.314C192.313 374.314 188.243 376 184 376Z" fill="#313133"/>
</svg>
