<svg width="496" height="488" viewBox="0 0 496 488" fill="none" xmlns="http://www.w3.org/2000/svg">
<path d="M320 64L347.608 29.488C350.45 25.9338 351.999 21.5188 352 16.968C351.998 12.4685 350.209 8.15381 347.028 4.97215C343.846 1.7905 339.532 0.00212135 335.032 1.41865e-06C332.804 -0.000910036 330.597 0.437382 328.538 1.28982C326.479 2.14226 324.608 3.39214 323.032 4.968L316.488 11.512L320 64ZM226.44 304L190.776 346.072L96 285.144V184C95.9991 173.396 97.7063 162.861 101.056 152.8L132.8 57.536C133.726 54.7542 135.505 52.3351 137.885 50.6231C140.265 48.911 143.124 47.9931 146.056 48C149.754 48.0021 153.299 49.4719 155.914 52.0864C158.528 54.701 159.998 58.2465 160 61.944V112L152 144L160 176L226.44 304Z" fill="#F1B37B"/>
<path d="M320 24C320 17.6348 317.471 11.5303 312.971 7.02944C308.47 2.52856 302.365 0 296 0H184C177.635 0 171.53 2.52856 167.029 7.02944C162.529 11.5303 160 17.6348 160 24V280C160 286.365 162.529 292.47 167.029 296.971C171.53 301.471 177.635 304 184 304H280L307.296 301.184C311.135 299.136 314.345 296.083 316.583 292.352C318.82 288.62 320.002 284.351 320 280V24Z" fill="#313133"/>
<path d="M184 288C181.878 288 179.843 287.157 178.343 285.657C176.843 284.157 176 282.122 176 280V24C176 21.8783 176.843 19.8434 178.343 18.3431C179.843 16.8429 181.878 16 184 16H296C298.122 16 300.157 16.8429 301.657 18.3431C303.157 19.8434 304 21.8783 304 24V280C304.002 281.059 303.791 282.109 303.379 283.085C302.966 284.06 302.361 284.943 301.6 285.68L279.2 288H184Z" fill="#9EBED3"/>
<path d="M304 271.088V24C304 21.8783 303.157 19.8434 301.657 18.3431C300.157 16.8429 298.122 16 296 16H192V264C192 266.122 192.843 268.157 194.343 269.657C195.843 271.157 197.878 272 200 272H295.2L304 271.088Z" fill="#B3D8F1"/>
<path d="M200 152L240 176L280 152V104L240 80L200 104V152Z" fill="#B48155"/>
<path d="M152 488L168 408L200 352L88 280L0 408V488H152Z" fill="#336EA3"/>
<path d="M181.6 340.176L88 280L0 408V452.056C5.70061 458.339 12.6529 463.359 20.4098 466.793C28.1667 470.228 36.5566 472.002 45.04 472H67.896C87.1007 472.001 105.712 465.347 120.564 453.171C135.415 440.994 145.588 424.048 149.352 405.216C151.104 396.462 154.257 388.047 158.688 380.296L181.6 340.176Z" fill="#407DBC"/>
<path d="M496 488H360L352 472L324.16 451.12C321.383 449.05 318.762 446.777 316.32 444.32C308.226 436.229 302.119 426.371 298.48 415.52L285.04 375.2C281.696 365.138 279.994 354.603 280 344V301.44C280.014 298.154 281.228 294.987 283.414 292.533C285.599 290.08 288.605 288.509 291.867 288.116C295.13 287.723 298.423 288.535 301.129 290.399C303.834 292.263 305.766 295.052 306.56 298.24L308.08 304.48C310.701 314.781 312.018 325.371 312 336V352L344 376V336C343.982 325.449 341.775 315.016 337.52 305.36L315.52 255.92C313.202 250.707 312.003 245.065 312 239.36C311.992 237.341 312.383 235.339 313.152 233.472C313.921 231.605 315.052 229.908 316.48 228.48C317.908 227.052 319.605 225.921 321.472 225.152C323.339 224.383 325.341 223.992 327.36 224C330.003 224.002 332.601 224.688 334.9 225.992C337.199 227.295 339.122 229.172 340.48 231.44L357.52 259.92C360.414 257.372 364.144 255.977 368 256C372.993 255.996 377.922 257.115 382.423 259.276C386.924 261.436 390.881 264.582 394 268.48L398.56 274.16L419.6 281.2C431.99 285.332 442.947 292.905 451.192 303.034C459.437 313.163 464.629 325.43 466.16 338.4L480 456L496 488Z" fill="#F1B37B"/>
<path d="M461.296 378.24L450.16 322.4C448.772 310.847 444.472 299.836 437.664 290.4C432.134 286.451 426.046 283.35 419.6 281.2L398.56 274.16L394 268.48C390.881 264.582 386.924 261.436 382.423 259.276C377.922 257.115 372.993 255.996 368 256C364.144 255.977 360.414 257.372 357.52 259.92L340.48 231.44C339.122 229.172 337.199 227.295 334.9 225.992C332.601 224.688 330.003 224.002 327.36 224C325.341 223.992 323.339 224.383 321.472 225.152C319.605 225.921 317.908 227.052 316.48 228.48C315.052 229.908 313.921 231.605 313.152 233.472C312.383 235.339 311.992 237.341 312 239.36C312.003 245.065 313.202 250.707 315.52 255.92L337.52 305.36C341.775 315.016 343.982 325.449 344 336V376L312 352V336C312.018 325.371 310.701 314.781 308.08 304.48L306.56 298.24C305.766 295.052 303.834 292.263 301.129 290.399C298.423 288.535 295.13 287.723 291.867 288.116C288.605 288.509 285.599 290.08 283.414 292.533C281.228 294.987 280.014 298.154 280 301.44V344C279.994 354.603 281.696 365.138 285.04 375.2L298.48 415.52C302.119 426.371 308.226 436.229 316.32 444.32C318.762 446.777 321.383 449.05 324.16 451.12L352 472H384.392C395.992 472.003 407.448 469.433 417.935 464.473C428.421 459.514 437.676 452.289 445.033 443.32C452.39 434.351 457.664 423.861 460.476 412.607C463.289 401.353 463.569 389.615 461.296 378.24Z" fill="#FFCDA4"/>
<path d="M208 0L216.008 32H264.008L272.008 0" fill="#313133"/>
<path d="M304 185.168C304 189.102 305.563 192.874 308.344 195.656C311.126 198.437 314.898 200 318.832 200C324.861 200.002 330.807 198.599 336.2 195.904L351.8 188.096C354.264 186.864 356.336 184.971 357.784 182.629C359.232 180.286 360 177.586 360 174.832C360 170.898 358.437 167.126 355.656 164.344C352.874 161.563 349.102 160 345.168 160C339.139 159.998 333.193 161.401 327.8 164.096L312.2 171.904C309.736 173.136 307.664 175.029 306.216 177.371C304.768 179.714 304 182.414 304 185.168ZM304 145.688C304 149.484 305.508 153.124 308.192 155.808C310.876 158.492 314.516 160 318.312 160C324.713 159.998 331.056 158.776 337 156.4L359 147.6C361.656 146.538 363.934 144.705 365.538 142.336C367.142 139.968 368 137.173 368 134.312C368 130.516 366.492 126.876 363.808 124.192C361.124 121.508 357.484 120 353.688 120C347.287 120.002 340.944 121.224 335 123.6L313 132.4C310.344 133.462 308.066 135.295 306.462 137.664C304.858 140.032 304 142.827 304 145.688ZM304 102.032C304.002 106.797 305.896 111.366 309.265 114.735C312.634 118.104 317.203 119.998 321.968 120C325.973 120.002 329.963 119.511 333.848 118.536L346.392 115.4C350.28 114.429 353.731 112.186 356.197 109.027C358.663 105.868 360.002 101.975 360 97.968C359.998 93.2033 358.104 88.6342 354.735 85.2651C351.366 81.8959 346.797 80.0021 342.032 80C338.027 79.9977 334.037 80.4894 330.152 81.464L317.608 84.6C313.72 85.571 310.269 87.8144 307.803 90.9732C305.337 94.132 303.998 98.0247 304 102.032Z" fill="#F1B37B"/>
<path d="M280 104L240 128L200 104L240 80L280 104Z" fill="#D09E71"/>
<path d="M240 176V128L280 104V152L240 176Z" fill="#926745"/>
<path d="M208 200H272V216H208V200ZM184 232H296V248H184V232Z" fill="white"/>
<path d="M377.144 308.12L390.856 299.88L364.72 256.36C363.904 256.514 363.101 256.734 362.32 257.016L350.624 264.04L377.144 308.12ZM409.752 300.992L422.248 291.008L412.528 278.832L398.56 274.16L392.312 279.152L409.752 300.992Z" fill="#F1B37B"/>
<path d="M88 280L50.488 334.56L168 408L200 352L88 280Z" fill="#9EBED3"/>
<path d="M151.312 397.6C153.11 391.582 155.584 385.788 158.688 380.328L181.6 340.176L88 280L50.488 334.56L151.312 397.6Z" fill="#B3D8F1"/>
<path d="M344.2 179.904L359.728 172.136C359.102 168.731 357.302 165.652 354.643 163.435C351.983 161.218 348.631 160.003 345.168 160C339.139 159.998 333.193 161.401 327.8 164.096L312.272 171.864C312.898 175.269 314.698 178.348 317.357 180.565C320.017 182.782 323.369 183.997 326.832 184C332.861 184.002 338.807 182.599 344.2 179.904ZM335 123.6L313 132.4C312.76 132.496 312.584 132.672 312.352 132.776C313.055 135.956 314.821 138.801 317.359 140.842C319.897 142.883 323.055 143.997 326.312 144C332.713 143.998 339.056 142.776 345 140.4L367 131.6C367.24 131.504 367.416 131.328 367.648 131.224C366.945 128.044 365.179 125.199 362.641 123.158C360.103 121.117 356.945 120.003 353.688 120C347.286 120.002 340.944 121.224 335 123.6ZM330.152 81.464L317.608 84.6C315.648 85.083 313.785 85.8945 312.096 87C312.333 91.5825 314.319 95.8995 317.644 99.062C320.969 102.225 325.379 103.992 329.968 104C333.973 104.002 337.963 103.511 341.848 102.536L354.392 99.4C356.352 98.917 358.215 98.1055 359.904 97C359.666 92.4175 357.681 88.1006 354.356 84.938C351.031 81.7755 346.621 80.0082 342.032 80C338.027 79.9977 334.037 80.4894 330.152 81.464Z" fill="#FFCDA4"/>
</svg>
