<svg width="512" height="512" viewBox="0 0 512 512" fill="none" xmlns="http://www.w3.org/2000/svg">
<path d="M400 376V424L342.72 438.32C332.366 440.914 321.486 440.497 311.36 437.12L208.16 402.72C205.917 401.975 203.946 400.58 202.498 398.712C201.049 396.844 200.189 394.587 200.026 392.229C199.863 389.871 200.405 387.518 201.583 385.469C202.76 383.42 204.521 381.767 206.64 380.72C212.791 377.611 219.588 375.994 226.48 376C230.135 376.008 233.78 376.383 237.36 377.12L302 390C299.775 388.596 298.034 386.544 297.012 384.119C295.99 381.694 295.737 379.015 296.287 376.442C296.836 373.869 298.162 371.526 300.085 369.73C302.008 367.935 304.435 366.772 307.04 366.4L347.52 360.64C350.516 360.225 353.536 360.011 356.56 360C369.232 360.009 381.619 363.767 392.16 370.8L400 376Z" fill="#F1B37B"/>
<path d="M337.12 432C341.705 431.999 346.273 431.435 350.72 430.32L400 418V376L392.16 370.8C381.619 363.767 369.232 360.009 356.56 360C353.536 360.011 350.516 360.225 347.52 360.64L307.04 366.4C304.435 366.772 302.008 367.935 300.085 369.73C298.162 371.526 296.836 373.869 296.287 376.442C295.737 379.015 295.99 381.694 297.012 384.119C298.034 386.544 299.775 388.596 302 390L237.36 377.12C233.78 376.383 230.135 376.008 226.48 376C220.297 376.019 214.187 377.344 208.552 379.888C208.195 381.011 208.009 382.182 208 383.36C207.985 385.873 208.766 388.326 210.233 390.367C211.699 392.408 213.774 393.932 216.16 394.72L319.36 429.12C325.085 431.034 331.083 432.007 337.12 432Z" fill="#FFCDA4"/>
<path d="M72 72H360V328H72V72Z" fill="#926745"/>
<path d="M88 72V119.952C88.114 127.914 90.2 135.723 94.0714 142.681C97.9428 149.64 103.479 155.529 110.184 159.824L126.512 170.528C141.363 180.257 158.293 186.357 175.936 188.336C197.416 190.705 219.006 191.928 240.616 192C247.625 191.84 254.481 194.068 260.056 198.319C265.631 202.57 269.595 208.59 271.296 215.392C272.913 222.63 271.794 230.211 268.157 236.674C264.519 243.137 258.619 248.026 251.592 250.4C243.204 253.196 234.509 254.969 225.696 255.68L252 308.296C252.28 308.856 252.488 309.432 252.736 310C261.871 311.323 271.089 311.991 280.32 312H360V72H88Z" fill="#B48155"/>
<path d="M272 256H336V272H272V256ZM216 288H336V304H216V288Z" fill="#5C4436"/>
<path d="M256 221.92C255.997 224.85 255.078 227.706 253.371 230.088C251.664 232.469 249.254 234.257 246.48 235.2C236.883 238.393 226.834 240.014 216.72 240H200L237.68 315.44C239.196 318.442 239.991 321.757 240 325.12C239.996 327.359 239.302 329.542 238.014 331.373C236.725 333.204 234.904 334.595 232.798 335.355C230.693 336.115 228.404 336.209 226.243 335.623C224.082 335.037 222.154 333.8 220.72 332.08L204.08 312.08L213.2 324.24C215.022 326.691 216.004 329.666 216 332.72C215.994 334.951 215.329 337.131 214.087 338.984C212.846 340.838 211.084 342.284 209.023 343.139C206.963 343.994 204.695 344.22 202.506 343.79C200.317 343.36 198.304 342.292 196.72 340.72L176 320L181.68 331.36C183.208 334.415 184.002 337.784 184 341.2C184.006 342.62 183.731 344.027 183.191 345.34C182.65 346.654 181.855 347.847 180.851 348.851C179.847 349.855 178.654 350.65 177.34 351.191C176.027 351.731 174.62 352.006 173.2 352C171.572 351.992 169.967 351.621 168.5 350.916C167.033 350.21 165.742 349.187 164.72 347.92L150.56 330.24L150.88 331.44C151.612 334.479 151.987 337.594 152 340.72C151.994 342.951 151.329 345.131 150.087 346.984C148.846 348.838 147.084 350.284 145.023 351.139C142.963 351.994 140.695 352.22 138.506 351.79C136.317 351.36 134.304 350.292 132.72 348.72C123.599 339.638 116.365 328.841 111.436 316.95C106.507 305.06 103.98 292.312 104 279.44V264L143.52 200.8L174.16 204.24C196.714 206.733 219.388 207.988 242.08 208C245.771 208.002 249.311 209.469 251.921 212.079C254.531 214.689 255.998 218.229 256 221.92Z" fill="#F1B37B"/>
<path d="M229.12 336C232.005 335.998 234.771 334.851 236.811 332.811C238.851 330.771 239.998 328.005 240 325.12C239.991 321.757 239.196 318.442 237.68 315.44L200 240H216.72C226.834 240.014 236.883 238.393 246.48 235.2C249.028 234.316 251.265 232.712 252.919 230.582C254.574 228.452 255.574 225.888 255.8 223.2C233.87 223.119 211.959 221.874 190.16 219.472C180.992 218.443 171.719 220.025 163.41 224.036C155.102 228.047 148.096 234.324 143.2 242.144L128.208 266.144C122.859 274.687 120.015 284.56 120 294.64C119.994 307.514 122.522 320.263 127.44 332.16C130.326 339.026 134.004 345.532 138.4 351.544C139.155 351.779 139.933 351.931 140.72 352C142.202 352.002 143.67 351.712 145.039 351.146C146.409 350.58 147.653 349.749 148.701 348.701C149.749 347.653 150.58 346.409 151.146 345.039C151.712 343.67 152.002 342.202 152 340.72C151.987 337.594 151.612 334.48 150.88 331.44L150.56 330.24L164.72 347.92C165.742 349.187 167.033 350.21 168.5 350.916C169.967 351.621 171.572 351.992 173.2 352C174.62 352.006 176.027 351.731 177.34 351.191C178.654 350.65 179.847 349.855 180.851 348.851C181.855 347.847 182.65 346.654 183.191 345.341C183.731 344.027 184.006 342.62 184 341.2C184.002 337.784 183.208 334.415 181.68 331.36L176 320L196.72 340.72C198.304 342.292 200.317 343.36 202.506 343.79C204.695 344.221 206.963 343.994 209.023 343.139C211.084 342.284 212.846 340.838 214.087 338.985C215.329 337.131 215.994 334.951 216 332.72C216.004 329.666 215.022 326.691 213.2 324.24L204.08 312.08L220.72 332.08C221.747 333.31 223.031 334.299 224.483 334.976C225.935 335.654 227.518 336.003 229.12 336Z" fill="#FFCDA4"/>
<path d="M8 112L144 200L104 264L8 224V112Z" fill="#336EA3"/>
<path d="M184 72V152H248V72" fill="#5C4436"/>
<path d="M504 440L400 432V368H504V440Z" fill="#1B924A"/>
<path d="M336 400H308.88C304.911 400.009 301.023 398.876 297.68 396.736L306.304 383.264C307.071 383.758 307.967 384.014 308.88 384H336V400Z" fill="#F1B37B"/>
<path d="M122.208 218.872L136.88 195.392L8 112V208L72.288 234.792C81.146 238.483 91.027 238.909 100.17 235.994C109.312 233.078 117.123 227.01 122.208 218.872Z" fill="#407DBC"/>
<path d="M154.296 309.64L165.608 298.328L181.608 314.328L170.296 325.64L154.296 309.64ZM198.4 317.736C198.2 317.538 198.008 317.333 197.824 317.12L177.824 293.12L190.128 282.88L210.128 306.88L198.4 317.736ZM129.696 316.848L142.192 306.864L156.752 325.088L144.256 335.072L129.696 316.848Z" fill="#F1B37B"/>
<path d="M416 377.432C415.999 390.096 420.776 402.295 429.378 411.59C437.98 420.884 449.773 426.591 462.4 427.568L504 430.768V368H416V377.432Z" fill="#40B450"/>
</svg>
